HIERARCHY
ROOT Hips
{
	OFFSET 0.00000 0.00000 0.00000
	CHANNELS 6 Xposition Yposition Zposition Zrotation Yrotation Xrotation 
	JOINT LHipJoint
	{
		OFFSET 0 0 0
		CHANNELS 3 Zrotation Yrotation Xrotation
		JOINT LeftUpLeg
		{
			OFFSET 2.36090 -1.39315 1.24752
			CHANNELS 3 Zrotation Yrotation Xrotation
			JOINT LeftLeg
			{
				OFFSET 2.06810 -5.68207 0.00000
				CHANNELS 3 Zrotation Yrotation Xrotation
				JOINT LeftFoot
				{
					OFFSET 2.46631 -6.77613 0.00000
					CHANNELS 3 Zrotation Yrotation Xrotation
					JOINT LeftToeBase
					{
						OFFSET 0.26031 -0.71520 1.99545
						CHANNELS 3 Zrotation Yrotation Xrotation
						End Site
						{
							OFFSET 0.00000 -0.00000 1.05957
						}
					}
				}
			}
		}
	}
	JOINT RHipJoint
	{
		OFFSET 0 0 0
		CHANNELS 3 Zrotation Yrotation Xrotation
		JOINT RightUpLeg
		{
			OFFSET -2.25243 -1.39315 1.24752
			CHANNELS 3 Zrotation Yrotation Xrotation
			JOINT RightLeg
			{
				OFFSET -2.17343 -5.97145 0.00000
				CHANNELS 3 Zrotation Yrotation Xrotation
				JOINT RightFoot
				{
					OFFSET -2.52372 -6.93386 0.00000
					CHANNELS 3 Zrotation Yrotation Xrotation
					JOINT RightToeBase
					{
						OFFSET -0.22538 -0.61923 2.11447
						CHANNELS 3 Zrotation Yrotation Xrotation
						End Site
						{
							OFFSET -0.00000 -0.00000 1.10506
						}
					}
				}
			}
		}
	}
	JOINT LowerBack
	{
		OFFSET 0 0 0
		CHANNELS 3 Zrotation Yrotation Xrotation
		JOINT Spine
		{
			OFFSET 0.01594 2.13103 0.08007
			CHANNELS 3 Zrotation Yrotation Xrotation
			JOINT Spine1
			{
				OFFSET 0.01393 2.09723 0.18338
				CHANNELS 3 Zrotation Yrotation Xrotation
				JOINT Neck
				{
					OFFSET 0 0 0
					CHANNELS 3 Zrotation Yrotation Xrotation
					JOINT Neck1
					{
						OFFSET 0.05351 1.38915 0.32494
						CHANNELS 3 Zrotation Yrotation Xrotation
						JOINT Head
						{
							OFFSET 0.00711 1.45992 -0.21666
							CHANNELS 3 Zrotation Yrotation Xrotation
							End Site
							{
								OFFSET -0.00433 1.47702 -0.11056
							}
						}
					}
				}
				JOINT LeftShoulder
				{
					OFFSET 0 0 0
					CHANNELS 3 Zrotation Yrotation Xrotation
					JOINT LeftArm
					{
						OFFSET 2.87198 0.92249 0.11132
						CHANNELS 3 Zrotation Yrotation Xrotation
						JOINT LeftForeArm
						{
							OFFSET 5.52731 -0.00000 0.00000
							CHANNELS 3 Zrotation Yrotation Xrotation
							JOINT LeftHand
							{
								OFFSET 3.11059 -0.00000 0.00000
								CHANNELS 3 Zrotation Yrotation Xrotation
								JOINT LeftFingerBase
								{
									OFFSET 0 0 0
									CHANNELS 3 Zrotation Yrotation Xrotation
									JOINT LeftHandIndex1
									{
										OFFSET 0.41963 -0.00000 0.00000
										CHANNELS 3 Zrotation Yrotation Xrotation
										End Site
										{
											OFFSET 0.33831 -0.00000 0.00000
										}
									}
								}
								JOINT LThumb
								{
									OFFSET 0 0 0
									CHANNELS 3 Zrotation Yrotation Xrotation
									End Site
									{
										OFFSET 0.34348 -0.00000 0.34348
									}
								}
							}
						}
					}
				}
				JOINT RightShoulder
				{
					OFFSET 0 0 0
					CHANNELS 3 Zrotation Yrotation Xrotation
					JOINT RightArm
					{
						OFFSET -2.94710 0.68072 0.32187
						CHANNELS 3 Zrotation Yrotation Xrotation
						JOINT RightForeArm
						{
							OFFSET -5.25396 -0.00000 -0.00000
							CHANNELS 3 Zrotation Yrotation Xrotation
							JOINT RightHand
							{
								OFFSET -3.10567 -0.00000 0.00000
								CHANNELS 3 Zrotation Yrotation Xrotation
								JOINT RightFingerBase
								{
									OFFSET 0 0 0
									CHANNELS 3 Zrotation Yrotation Xrotation
									JOINT RightHandIndex1
									{
										OFFSET -0.49868 -0.00000 0.00000
										CHANNELS 3 Zrotation Yrotation Xrotation
										End Site
										{
											OFFSET -0.40204 -0.00000 0.00000
										}
									}
								}
								JOINT RThumb
								{
									OFFSET 0 0 0
									CHANNELS 3 Zrotation Yrotation Xrotation
									End Site
									{
										OFFSET -0.40818 -0.00000 0.40818
									}
								}
							}
						}
					}
				}
			}
		}
	}
}
MOTION
Frames: 16
Frame Time: 0.125
0.00 0.00 0.00 0 0 0 0 0 0 -21 0 0 0 0 0 0 0 0 0 0 0 0 0 0 21 0 0 0 0 0 0 0 0 0 0 0 0 0 0 0 0 0 0 0 0 0 0 -16 0 0 21 0 0 11 0 0 0 -8 0 0 0 0 0 0 0 0 0 0 0 0 0 0 0 0 0 0 0 0 8 0 0 0 0 0 0 0 0 0 0 0 0 0 0 0 0 0
0.00 0.00 0.00 -179.8230 -2.7703 -163.9290 0.0000 0.0000 0.0000 -8.5893 -23.3800 -45.3904 5.4747 13.8993 42.8354 0.2863 3.1861 -11.7941 1.5612 -7.8851 -22.3656 0.0000 0.0000 0.0000 24.0706 23.7611 -17.9010 -3.4010 -11.3174 33.3581 -1.0896 -5.5039 -22.4289 -0.7462 5.5177 -15.3914 9.0689 1.4590 -12.5759 1.6517 0.1785 -4.0998 -3.3571 -0.1697 2.7724 4.7712 3.3970 -17.9409 -2.5135 2.2784 32.4005 -1.6334 0.5048 14.1973 -0.0000 0.0000 0.0000 -78.3220 9.3902 34.1659 20.7641 -31.5520 -5.9260 -0.0000 0.0000 -41.3978 14.9793 -5.2687 -1.4074 -7.1250 0.0000 -0.0000 -8.7195 24.5285 4.3611 -0.0000 0.0000 0.0000 84.6097 3.7244 20.2326 -13.9283 22.6321 -2.8004 0.0000 -0.0000 -4.8689 -16.9701 -15.4103 4.6360 7.1250 -0.0000 -0.0000 10.0142 -45.8126 -0.2029
0.00 0.00 0.00 -178.9310 0.9166 -162.2810 0.0000 0.0000 0.0000 -0.4863 -25.6680 -47.8252 1.8175 8.4751 24.1666 0.1701 2.3085 -8.9976 1.3551 -7.3688 -20.8127 0.0000 0.0000 0.0000 24.7212 23.4418 -11.0514 -2.2590 -9.3859 27.0102 -1.0579 -4.2070 -21.3754 -1.2076 6.9716 -19.6313 9.0447 1.4804 -12.9370 0.6096 1.3147 -4.0223 -4.2427 0.8834 3.1406 5.7325 4.0257 -17.8150 -2.9218 3.1355 31.6081 -1.7914 0.9776 13.8954 -0.0000 0.0000 0.0000 -77.4705 7.2926 29.3467 23.6057 -34.7445 -7.4806 -0.0000 0.0000 -43.3734 20.0016 -8.3317 -3.0193 -7.1250 0.0000 -0.0000 -4.9614 21.1356 2.8492 -0.0000 0.0000 0.0000 85.8822 4.7296 27.2174 -16.4526 26.1305 -3.8431 0.0000 -0.0000 -5.6845 -14.1959 -13.9464 3.4889 7.1250 -0.0000 -0.0000 12.1398 -44.0060 0.3025
0.00 0.00 0.00 -177.9930 6.1950 -159.9830 0.0000 0.0000 0.0000 -6.2059 -24.4706 -41.5989 2.0929 9.0569 25.9735 0.0207 -0.1567 -2.6674 0.9841 -6.3145 -17.6997 0.0000 0.0000 0.0000 24.0348 19.9115 4.8068 -1.2014 -6.9542 19.5797 -0.1042 -1.0240 -6.5641 -2.8062 10.3746 -30.1984 -2.9919 0.0494 -16.7793 -1.5642 1.4701 -5.7182 0.3488 1.0973 3.2842 7.0681 0.9512 -17.0942 0.3481 0.9669 30.6469 -0.7576 2.0121 13.1825 0.0000 -0.0000 0.0000 -78.3123 3.4954 29.5607 11.3562 -18.8321 -1.8893 -0.0000 0.0000 -36.4771 17.0722 -2.0767 -0.6376 -7.1250 0.0000 -0.0000 -7.3232 27.7830 3.0887 0.0000 -0.0000 0.0000 85.6891 -8.4155 22.3526 -15.1433 24.3453 -3.2848 0.0000 -0.0000 -2.6109 -18.0548 -13.2363 4.2685 7.1250 -0.0000 -0.0000 8.5051 -43.7114 0.2726
0.00 0.00 0.00 -176.8410 7.6509 -158.0450 0.0000 0.0000 0.0000 -8.7562 -22.5012 -38.3969 2.2499 9.3684 26.9545 0.1869 -1.3959 -7.7963 0.7968 -5.6975 -15.9092 0.0000 0.0000 0.0000 21.5316 18.8512 -8.5601 -4.2033 -12.4261 37.2566 -0.0039 -0.8883 -1.8326 -0.7733 5.6148 -15.6707 -6.2574 -0.0843 -17.0772 -2.0384 1.9497 -5.9902 1.7805 1.3993 3.0516 6.9770 0.7078 -17.9316 1.4608 -0.1222 28.8777 -0.5190 1.5028 12.6013 -0.0000 -0.0000 0.0000 -76.9832 3.3163 36.5360 13.9447 -22.6556 -2.8068 -0.0000 0.0000 -39.3862 18.3966 -2.2774 -0.7572 -7.1250 0.0000 -0.0000 -6.2957 27.5633 2.6829 -0.0000 -0.0000 0.0000 85.5680 -10.4964 15.3200 -11.7027 19.3572 -2.0026 0.0000 0.0000 2.2308 -7.5677 -15.2954 2.0072 7.1250 -0.0000 -0.0000 18.4440 -44.5787 0.1988
0.00 0.00 0.00 -179.1640 7.2790 -159.2520 0.0000 0.0000 0.0000 -21.5032 -16.0248 -21.1829 1.7511 8.3272 23.7124 0.7685 -5.8221 -15.6235 0.8692 -5.9443 -16.6230 0.0000 0.0000 0.0000 10.3392 28.6448 -49.3780 -4.6406 -12.9673 39.2461 -0.1505 -10.1394 -16.6340 -0.5257 4.6465 -12.9029 -11.1251 -1.2743 -11.7922 -2.4633 0.2748 -3.9529 3.7081 0.4166 2.4308 6.3129 0.7051 -16.6720 1.6599 -0.2524 24.9374 -0.4257 1.0813 10.8152 0.0000 -0.0000 0.0000 -72.8593 -6.2929 34.5942 15.0620 -24.2324 -3.2514 -0.0000 0.0000 -41.7213 22.9573 -6.5780 -2.7781 -7.1250 0.0000 -0.0000 -2.7911 22.8440 1.4903 0.0000 -0.0000 0.0000 85.7109 -7.3095 23.9527 -22.6662 33.7218 -6.9521 0.0000 -0.0000 -5.0831 -11.5604 -11.9700 2.4292 7.1250 -0.0000 -0.0000 13.9458 -41.7710 1.1353
0.00 0.00 0.00 -182.0220 3.4308 -159.2560 0.0000 0.0000 0.0000 -26.0876 -11.1165 -6.6930 0.1187 2.2212 6.1174 0.0559 -10.6219 -8.2962 0.8739 -5.9600 -16.6685 0.0000 0.0000 0.0000 -2.3219 36.3161 -56.2070 -2.5884 -9.9969 28.9667 0.2593 -14.6851 -17.7356 -0.6420 5.1260 -14.2684 -11.6941 -2.2255 -12.1753 -2.0276 -0.8557 -3.6794 4.3197 -0.1847 3.1046 4.7120 -0.3556 -16.6276 0.9963 -1.2595 24.0872 -0.5497 0.3084 10.4558 -0.0000 0.0000 0.0000 -73.9156 -6.3102 33.9398 15.2501 -24.4934 -3.3290 -0.0000 0.0000 -41.4295 23.3738 -7.2162 -3.1075 -7.1250 0.0000 -0.0000 -2.4966 22.1288 1.3735 -0.0000 0.0000 0.0000 84.8474 -6.8229 26.4654 -24.1342 35.3059 -7.7840 0.0000 -0.0000 -5.1725 -10.6834 -11.5695 2.1668 7.1250 -0.0000 -0.0000 14.6016 -41.2954 1.3668
0.00 0.00 0.00 -185.1520 -2.7461 -159.7680 0.0000 0.0000 0.0000 -28.7931 -9.1476 7.2067 0.0000 -0.0000 -0.0000 -0.5806 -13.5669 2.4622 1.3741 -7.4182 -20.9605 0.0000 0.0000 0.0000 0.3544 32.7697 -52.5380 -3.5529 -11.5404 34.1247 0.7120 -14.9578 -2.8807 -0.6415 5.1240 -14.2627 -6.6263 -2.2551 -16.6559 -0.7872 -2.5585 -4.6787 2.3686 -1.6024 4.5266 3.1149 -1.6693 -16.6332 -2.9294 -1.3932 26.1830 -1.7176 -0.2773 11.1823 0.0000 0.0000 0.0000 -78.0505 3.5441 32.9355 15.8708 -25.3452 -3.5905 -0.0000 0.0000 -40.7008 20.4161 -7.2399 -2.6857 -7.1250 0.0000 -0.0000 -4.6589 22.2688 2.5542 0.0000 0.0000 0.0000 83.1668 -7.3154 24.0454 -17.3262 27.2858 -4.2358 0.0000 -0.0000 -2.2913 -10.4522 -12.1439 2.2224 7.1250 -0.0000 -0.0000 14.9532 -41.8369 1.1964
0.00 0.00 0.00 -183.0300 -2.9268 -161.4610 0.0000 0.0000 0.0000 -26.7201 -9.1688 0.0433 1.1932 6.9313 19.5119 -0.6443 -14.4222 8.8685 1.6172 -8.0186 -22.7706 0.0000 0.0000 0.0000 7.4322 31.3051 -47.8332 -4.4241 -12.7043 38.2714 0.3718 -10.7889 -5.1463 -0.4042 4.0817 -11.3065 -0.1774 -0.9073 -16.6256 0.4579 -1.8786 -4.8508 0.1896 -1.2199 4.1599 2.9949 -1.6671 -16.6741 -4.0947 -1.0556 25.8358 -2.0710 -0.2938 11.0622 0.0000 -0.0000 0.0000 -80.9982 7.9078 29.5054 14.5189 -23.4716 -3.0317 -0.0000 0.0000 -39.3931 19.9405 -7.2510 -2.6218 -7.1250 0.0000 -0.0000 -5.0065 22.2816 2.7446 0.0000 -0.0000 0.0000 82.4944 -6.6174 17.5215 -13.4269 21.9095 -2.6104 0.0000 0.0000 0.8976 -12.8250 -12.4856 2.8177 7.1250 -0.0000 -0.0000 12.9740 -42.4043 0.8464
0.00 0.00 0.00 -181.5720 -4.1310 -162.5110 0.0000 0.0000 0.0000 -23.7453 -10.9490 -9.5647 4.1913 12.4107 37.2007 1.2317 -8.0815 25.3220 0.3804 -3.9608 -10.9665 0.0000 0.0000 0.0000 12.8000 28.9200 -42.3522 -4.5308 -12.8351 38.7542 0.2288 -9.9381 -9.2301 -0.4085 4.1032 -11.3671 4.4931 -0.3936 -15.6788 1.6204 -2.0234 -5.1688 -1.2181 -1.3282 3.2162 3.2974 -1.5063 -16.8845 -4.9156 -0.7514 25.4322 -2.3769 -0.2498 10.9581 -0.0000 -0.0000 0.0000 -83.0828 11.8834 28.0806 14.1637 -22.9683 -2.8917 -0.0000 0.0000 -41.0223 18.5148 -4.9802 -1.6652 -7.1250 0.0000 -0.0000 -6.0985 24.7295 3.0043 -0.0000 -0.0000 0.0000 81.6726 -5.8870 11.3788 -11.7662 19.4531 -2.0238 0.0000 0.0000 2.2182 -14.8373 -15.2311 3.9811 7.1250 -0.0000 -0.0000 11.9132 -45.3684 -0.1099
0.00 0.00 0.00 -179.6070 -6.6303 -163.3700 0.0000 0.0000 0.0000 -18.5409 -16.6245 -22.6354 9.0401 16.8334 56.2286 2.7916 -7.6860 34.9607 0.0310 -1.1360 -3.1230 0.0000 0.0000 0.0000 18.8962 25.5769 -35.5041 -4.0771 -12.2624 36.6665 0.1009 -10.2447 -12.8424 -0.3904 4.0121 -11.1106 8.4178 -0.4434 -14.8777 3.1299 -2.7852 -5.4088 -1.9197 -1.8033 2.3850 3.4094 -1.5073 -18.0907 -4.8007 -0.8467 26.0814 -2.3998 -0.2767 11.4370 -0.0000 -0.0000 0.0000 -82.5663 14.5835 36.3245 14.3239 -23.1959 -2.9545 -0.0000 0.0000 -43.8971 12.0805 0.2002 0.0428 -7.1250 0.0000 -0.0000 -11.3852 30.0796 4.2206 -0.0000 -0.0000 0.0000 80.1427 -5.3744 12.0630 -12.0971 19.9502 -2.1353 0.0000 0.0000 0.0515 -14.8854 -15.8855 4.1613 7.1250 -0.0000 -0.0000 12.0574 -46.0306 -0.3112
0.00 0.00 0.00 -179.0550 -5.5894 -164.4010 0.0000 0.0000 0.0000 -16.0706 -18.2009 -33.4804 12.3192 18.5224 66.9971 0.5264 -8.8640 19.6864 1.3522 -7.3613 -20.7904 0.0000 0.0000 0.0000 21.9637 24.4781 -30.7580 -4.0954 -12.2863 36.7523 -0.1401 -9.5574 -15.7794 -0.4362 4.2379 -11.7469 9.4710 0.1083 -13.8244 3.8507 -2.1303 -4.7665 -1.6250 -1.4484 2.5462 3.0840 -1.7124 -18.0318 -4.5768 -1.2979 24.7098 -2.3066 -0.5555 10.8934 -0.0000 0.0000 0.0000 -81.5619 13.2485 43.9066 14.6013 -23.5878 -3.0646 -0.0000 0.0000 -36.9678 5.3598 0.6800 0.0638 -7.1250 0.0000 -0.0000 -16.6446 30.4079 6.1650 -0.0000 0.0000 0.0000 78.8705 -3.3748 14.2995 -12.8656 21.0900 -2.4047 0.0000 -0.0000 -1.0432 -16.3572 -14.5281 4.2109 7.1250 -0.0000 -0.0000 10.3445 -44.8401 0.0413
0.00 0.00 0.00 -181.3020 14.1178 -161.7270 0.0000 0.0000 0.0000 -16.0035 -20.2842 -34.9201 2.0270 8.9221 25.5520 0.0441 -4.8533 -4.7464 1.1941 -6.9339 -19.5196 0.0000 0.0000 0.0000 19.1967 16.3558 -16.7780 -8.7291 -16.6302 55.1484 -0.0704 2.1649 6.2980 -0.3437 3.7669 -10.4219 -9.2311 -1.8745 -13.6890 -2.0102 -0.4414 -5.9560 3.0254 0.2536 1.4492 -1.1230 -6.2190 -20.7080 5.6011 -9.4363 29.6279 0.8375 -2.9479 13.9047 0.0000 0.0000 0.0000 -76.9092 6.0128 38.7646 12.7399 -20.9049 -2.3596 -0.0000 0.0000 -37.9482 16.7502 -0.1568 -0.0472 -7.1250 0.0000 -0.0000 -7.7079 29.7721 2.8867 0.0000 0.0000 0.0000 83.3930 -10.0556 26.9866 -12.0921 19.9426 -2.1336 0.0000 0.0000 0.7547 -8.2552 -13.7797 1.9792 7.1250 -0.0000 -0.0000 17.3405 -43.2037 0.7943
0.00 0.00 0.00 -181.7810 15.3017 -161.8120 0.0000 0.0000 0.0000 -22.5277 -15.7166 -25.5420 2.5338 9.8991 28.6508 0.7205 -6.5306 -15.1566 1.2686 -7.1391 -20.1281 0.0000 0.0000 0.0000 12.5431 23.4250 -50.8352 -10.7927 -17.8321 62.1064 -0.0771 -4.8810 -9.1396 -0.5946 4.9365 -13.7274 -11.3363 -3.0121 -8.6280 -1.8610 -2.5783 -5.2609 4.1702 -0.8086 -0.2584 -2.0425 -6.3214 -21.3793 5.7424 -9.4417 29.3537 1.0075 -3.1035 13.9914 -0.0000 0.0000 0.0000 -74.7417 -4.0858 32.4433 16.5371 -26.2434 -3.8804 -0.0000 0.0000 -43.3886 23.8338 -5.8720 -2.5877 -7.1250 0.0000 -0.0000 -2.1335 23.5656 1.1033 -0.0000 0.0000 0.0000 83.4335 -7.8741 28.2046 -18.4817 28.7696 -4.7788 0.0000 -0.0000 -6.4542 -13.3894 -12.4259 2.9321 7.1250 -0.0000 -0.0000 12.4637 -42.4009 0.8130
0.00 0.00 0.00 -179.5980 41.5050 -158.1560 0.0000 0.0000 0.0000 -8.5016 -26.4158 -46.0931 2.9755 10.6553 31.1259 -0.1938 -9.1386 -1.7738 1.3213 -7.2800 -20.5475 0.0000 0.0000 0.0000 25.8273 18.3521 -18.8877 -7.6012 -15.8180 51.1132 -0.7822 4.8612 19.1627 -1.0391 -6.4830 18.1926 -7.3500 -2.5278 -12.6883 -0.0080 -2.0119 -6.0004 3.8601 -0.6577 1.0504 -2.8597 -9.6482 -18.9157 5.2872 -14.0606 30.9001 0.1630 -5.2635 14.3931 0.0000 0.0000 0.0000 -75.4611 4.8239 25.6945 12.0866 -19.9343 -2.1317 -0.0000 0.0000 -38.7337 20.6998 -0.2739 -0.1035 -7.1250 0.0000 -0.0000 -4.6072 29.6719 1.7274 0.0000 0.0000 0.0000 82.4192 -7.5519 24.9397 -13.6459 22.2262 -2.6927 0.0000 -0.0000 -4.8012 -12.1554 -10.8882 2.3299 7.1250 -0.0000 -0.0000 13.1642 -40.7548 1.4057
0.00 0.00 0.00 -181.4670 116.7910 -161.0870 0.0000 0.0000 0.0000 -8.6038 -28.2253 -44.6162 2.9667 10.6409 31.0782 -0.1190 -7.4355 -1.8080 1.4038 -7.4946 -21.1893 0.0000 0.0000 0.0000 27.2072 23.2459 -1.3051 -3.4223 -11.3492 33.4667 0.7119 15.8462 12.1345 -2.7893 -10.3458 30.1041 -3.5409 -3.7714 -17.8241 3.8163 -4.3543 -5.4703 5.1414 -2.0630 4.6507 -9.8217 -16.1379 -7.8101 12.6493 -23.6188 19.8722 2.7968 -10.5628 10.3498 0.0000 0.0000 0.0000 -78.1983 11.2508 25.1210 11.8543 -19.5858 -2.0532 -0.0000 0.0000 -39.7721 22.4801 -0.9056 -0.3747 -7.1250 0.0000 -0.0000 -3.1908 28.9935 1.2461 0.0000 0.0000 0.0000 80.7791 -1.9530 14.9120 -12.0601 19.8948 -2.1227 0.0000 0.0000 2.7742 -15.7616 -12.9854 3.6290 7.1250 -0.0000 -0.0000 10.5013 -43.2070 0.4702
